HIERARCHY
ROOT Hips
{
    OFFSET   0.000000   0.000000   0.000000
    CHANNELS 6 Xposition Yposition Zposition Zrotation Xrotation Yrotation
    JOINT Chest
    {
        OFFSET   0.000000   8.007230   0.000000
        CHANNELS 3 Zrotation Xrotation Yrotation
        JOINT Chest2
        {
            OFFSET   0.000000  22.077100   0.000000
            CHANNELS 3 Zrotation Xrotation Yrotation
            JOINT Neck
            {
                OFFSET   0.000000  23.254800  -0.000021
                CHANNELS 3 Zrotation Xrotation Yrotation
                JOINT Head
                {
                    OFFSET   0.000000  14.370000   1.956610
                    CHANNELS 3 Zrotation Xrotation Yrotation
                    End Site
                    {
                        OFFSET   0.000000  19.566000   0.000000
                    }
                }
            }
            JOINT LeftCollar
            {
                OFFSET   3.911900  19.017000  -0.467063
                CHANNELS 3 Zrotation Xrotation Yrotation
                JOINT LeftShoulder
                {
                    OFFSET  10.383700   0.000000   0.000000
                    CHANNELS 3 Zrotation Xrotation Yrotation
                    JOINT LeftElbow
                    {
                        OFFSET  26.662100   0.001529   0.000325
                        CHANNELS 3 Zrotation Xrotation Yrotation
                        JOINT LeftWrist
                        {
                            OFFSET  28.869000  -0.000011  -0.000096
                            CHANNELS 3 Zrotation Xrotation Yrotation
                            JOINT LeftFinger0
                            {
                                OFFSET   2.044650  -2.323460   3.252850
                                CHANNELS 3 Zrotation Xrotation Yrotation
                                JOINT LeftFinger01
                                {
                                    OFFSET   3.088130   0.000000   0.000000
                                    CHANNELS 3 Zrotation Xrotation Yrotation
                                    JOINT LeftFinger02
                                    {
                                        OFFSET   2.639460   0.000000   0.000000
                                        CHANNELS 3 Zrotation Xrotation Yrotation
                                        End Site
                                        {
                                            OFFSET   2.582190   0.000000   0.000000
                                        }
                                    }
                                }
                            }
                            JOINT LeftFinger1
                            {
                                OFFSET   8.364480   0.000000   3.252850
                                CHANNELS 3 Zrotation Xrotation Yrotation
                                JOINT LeftFinger11
                                {
                                    OFFSET   4.646930   0.000000   0.000000
                                    CHANNELS 3 Zrotation Xrotation Yrotation
                                    JOINT LeftFinger12
                                    {
                                        OFFSET   2.323460   0.000000   0.000000
                                        CHANNELS 3 Zrotation Xrotation Yrotation
                                        End Site
                                        {
                                            OFFSET   2.273050   0.000000   0.000000
                                        }
                                    }
                                }
                            }
                            JOINT LeftFinger2
                            {
                                OFFSET   8.364480   0.000016   1.078090
                                CHANNELS 3 Zrotation Xrotation Yrotation
                                JOINT LeftFinger21
                                {
                                    OFFSET   5.111620   0.000000   0.000000
                                    CHANNELS 3 Zrotation Xrotation Yrotation
                                    JOINT LeftFinger22
                                    {
                                        OFFSET   2.788160   0.000017   0.000000
                                        CHANNELS 3 Zrotation Xrotation Yrotation
                                        End Site
                                        {
                                            OFFSET   2.727660   0.000000   0.000000
                                        }
                                    }
                                }
                            }
                            JOINT LeftFinger3
                            {
                                OFFSET   7.899780   0.000015  -1.078090
                                CHANNELS 3 Zrotation Xrotation Yrotation
                                JOINT LeftFinger31
                                {
                                    OFFSET   4.646920   0.000000   0.000000
                                    CHANNELS 3 Zrotation Xrotation Yrotation
                                    JOINT LeftFinger32
                                    {
                                        OFFSET   2.323470   0.000000   0.000000
                                        CHANNELS 3 Zrotation Xrotation Yrotation
                                        End Site
                                        {
                                            OFFSET   2.273050   0.000000   0.000000
                                        }
                                    }
                                }
                            }
                            JOINT LeftFinger4
                            {
                                OFFSET   7.435090   0.000000  -3.252850
                                CHANNELS 3 Zrotation Xrotation Yrotation
                                JOINT LeftFinger41
                                {
                                    OFFSET   3.717550   0.000000   0.000000
                                    CHANNELS 3 Zrotation Xrotation Yrotation
                                    JOINT LeftFinger42
                                    {
                                        OFFSET   1.858760   0.000000   0.000000
                                        CHANNELS 3 Zrotation Xrotation Yrotation
                                        End Site
                                        {
                                            OFFSET   1.818440   0.000000   0.000000
                                        }
                                    }
                                }
                            }
                        }
                    }
                }
            }
            JOINT RightCollar
            {
                OFFSET  -3.911900  19.017000  -0.467062
                CHANNELS 3 Zrotation Xrotation Yrotation
                JOINT RightShoulder
                {
                    OFFSET -10.383700   0.000015   0.000000
                    CHANNELS 3 Zrotation Xrotation Yrotation
                    JOINT RightElbow
                    {
                        OFFSET -26.662100   0.001341   0.000385
                        CHANNELS 3 Zrotation Xrotation Yrotation
                        JOINT RightWrist
                        {
                            OFFSET -28.869000   0.000025  -0.000080
                            CHANNELS 3 Zrotation Xrotation Yrotation
                            JOINT RightFinger0
                            {
                                OFFSET  -2.044650  -2.323490   3.252850
                                CHANNELS 3 Zrotation Xrotation Yrotation
                                JOINT RightFinger01
                                {
                                    OFFSET  -3.088130   0.000000   0.000000
                                    CHANNELS 3 Zrotation Xrotation Yrotation
                                    JOINT RightFinger02
                                    {
                                        OFFSET  -2.639460   0.000000   0.000000
                                        CHANNELS 3 Zrotation Xrotation Yrotation
                                        End Site
                                        {
                                            OFFSET  -2.582190   0.000000   0.000000
                                        }
                                    }
                                }
                            }
                            JOINT RightFinger1
                            {
                                OFFSET  -8.364480   0.000000   3.252850
                                CHANNELS 3 Zrotation Xrotation Yrotation
                                JOINT RightFinger11
                                {
                                    OFFSET  -4.646930   0.000000   0.000000
                                    CHANNELS 3 Zrotation Xrotation Yrotation
                                    JOINT RightFinger12
                                    {
                                        OFFSET  -2.323470   0.000000   0.000000
                                        CHANNELS 3 Zrotation Xrotation Yrotation
                                        End Site
                                        {
                                            OFFSET  -2.273050   0.000000   0.000000
                                        }
                                    }
                                }
                            }
                            JOINT RightFinger2
                            {
                                OFFSET  -8.364480   0.000000   1.078090
                                CHANNELS 3 Zrotation Xrotation Yrotation
                                JOINT RightFinger21
                                {
                                    OFFSET  -5.111610   0.000000   0.000000
                                    CHANNELS 3 Zrotation Xrotation Yrotation
                                    JOINT RightFinger22
                                    {
                                        OFFSET  -2.788160   0.000000   0.000000
                                        CHANNELS 3 Zrotation Xrotation Yrotation
                                        End Site
                                        {
                                            OFFSET  -2.727660   0.000000   0.000000
                                        }
                                    }
                                }
                            }
                            JOINT RightFinger3
                            {
                                OFFSET  -7.899780   0.000000  -1.078090
                                CHANNELS 3 Zrotation Xrotation Yrotation
                                JOINT RightFinger31
                                {
                                    OFFSET  -4.646920   0.000000   0.000000
                                    CHANNELS 3 Zrotation Xrotation Yrotation
                                    JOINT RightFinger32
                                    {
                                        OFFSET  -2.323470   0.000000   0.000000
                                        CHANNELS 3 Zrotation Xrotation Yrotation
                                        End Site
                                        {
                                            OFFSET  -2.273050   0.000000   0.000000
                                        }
                                    }
                                }
                            }
                            JOINT RightFinger4
                            {
                                OFFSET  -7.435090   0.000000  -3.252850
                                CHANNELS 3 Zrotation Xrotation Yrotation
                                JOINT RightFinger41
                                {
                                    OFFSET  -3.717550   0.000000   0.000000
                                    CHANNELS 3 Zrotation Xrotation Yrotation
                                    JOINT RightFinger42
                                    {
                                        OFFSET  -1.858770   0.000000   0.000000
                                        CHANNELS 3 Zrotation Xrotation Yrotation
                                        End Site
                                        {
                                            OFFSET  -1.818440   0.000000   0.000000
                                        }
                                    }
                                }
                            }
                        }
                    }
                }
            }
        }
    }
    JOINT LeftHip
    {
        OFFSET   9.783010   0.000000   0.000000
        CHANNELS 3 Zrotation Xrotation Yrotation
        JOINT LeftKnee
        {
            OFFSET   0.000070 -41.789100   0.000028
            CHANNELS 3 Zrotation Xrotation Yrotation
            JOINT LeftAnkle
            {
                OFFSET   0.000087 -41.133200  -0.000100
                CHANNELS 3 Zrotation Xrotation Yrotation
                JOINT LeftToe
                {
                    OFFSET   0.000000  -6.358960  14.674500
                    CHANNELS 3 Zrotation Xrotation Yrotation
                    End Site
                    {
                        OFFSET   0.000000   0.000000   3.913200
                    }
                }
            }
        }
    }
    JOINT RightHip
    {
        OFFSET  -9.783020   0.000000   0.000000
        CHANNELS 3 Zrotation Xrotation Yrotation
        JOINT RightKnee
        {
            OFFSET   0.000044 -41.789100  -0.000870
            CHANNELS 3 Zrotation Xrotation Yrotation
            JOINT RightAnkle
            {
                OFFSET  -0.000090 -41.133200  -0.000245
                CHANNELS 3 Zrotation Xrotation Yrotation
                JOINT RightToe
                {
                    OFFSET   0.000000  -6.358960  14.674500
                    CHANNELS 3 Zrotation Xrotation Yrotation
                    End Site
                    {
                        OFFSET   0.000000   0.000000   3.913200
                    }
                }
            }
        }
    }
}
MOTION
Frames: 5
Frame Time:   0.016667
 -1.103540  89.474000  -1.181280  -0.999891  -4.038570   2.667390   1.260020   4.265490  -0.843987   2.593910   8.510860  -1.789580  -1.096530   0.182002   0.005713  -1.811230   0.368379   7.391450  -8.055680   1.886830  10.915400 -76.406100   8.785100  -7.972780   0.042869   5.578990 -14.737900   8.252790   1.159970  -1.546670  40.076500  34.449400 -51.057900 -33.307600   0.011043   0.007320 -11.653800   0.005989  -0.002579 -33.684400  -1.190020   1.784710 -27.575100   0.003404   0.006071 -19.288700   0.000785   0.004658 -30.182400  -3.742690   6.393590 -45.587700  -0.010838   0.006343 -30.361400  -0.011807   0.002451 -28.156900  -4.238220   7.858050 -35.707300  -0.005753   0.012805 -23.781000  -0.005918   0.007082 -28.959300  -4.874840   8.730380 -43.997500   0.000263   0.004495 -29.302300  -0.007224   0.000266   8.322310   3.883740   9.972530  66.954600  -0.764917   1.839010   2.140410   0.200454  19.234200 -14.136500   0.164391   1.430250 -54.845100  49.610600  98.586400  24.386000  -0.007175  -0.000212   7.193010   0.005318   0.000635  29.353800   1.377750   2.448020  24.040900   0.006805  -0.009366  16.812500   0.009796  -0.001963  27.686200  -1.484840  -2.827240  30.353400   0.004976  -0.004885  20.215300   0.001067  -0.002438  28.252300  -1.512910  -2.812320  34.157600  -0.000987  -0.005803  22.749000  -0.005456  -0.003686  33.478200  -1.762700  -2.663020  50.278900  -0.008775  -0.002719  33.485800  -0.001597  -0.001318   4.532270   5.076410  -0.425199   0.570059   1.054390  10.576800  -4.367360  -2.204640  -0.554001   0.000000   0.000000  -0.000000  -0.091617   5.954660  -2.605030   0.801568   1.779720 -14.668600   0.021097  -3.372430   0.356285  -0.000000   0.000000   0.000000
 -1.104000  89.474000  -1.195570  -0.995777  -4.064970   2.708260   1.256890   4.279470  -0.847591   2.588170   8.538770  -1.796930  -1.104900   0.190563   0.005677  -1.820970   0.385692   7.405780  -8.065940   1.878790  10.904100 -76.371200   8.810670  -7.972170   0.048325   5.614720 -14.777100   8.248610   1.208570  -1.563300  40.077700  34.461700 -51.050800 -33.297700   0.011038   0.007315 -11.648900   0.005985  -0.002589 -33.672100  -1.190300   1.785930 -27.565200   0.003401   0.006070 -19.288700   0.000784   0.004659 -30.174000  -3.742690   6.393460 -45.575000  -0.010832   0.006336 -30.353000  -0.011803   0.002444 -28.157900  -4.235180   7.852870 -35.691900  -0.005756   0.012805 -23.770700  -0.005923   0.007083 -28.948300  -4.870540   8.726370 -43.981800   0.000265   0.004494 -29.291900  -0.007226   0.000268   8.327410   3.874730   9.978320  66.897000  -0.730420   1.857490   2.141210   0.240064  19.232700 -14.132300   0.289216   1.431650 -54.884700  49.620800  98.618700  24.377800  -0.007182  -0.000214   7.188910   0.005323   0.000635  29.345000   1.379460   2.451340  24.034000   0.006804  -0.009358  16.812500   0.009794  -0.001962  27.681700  -1.478090  -2.814890  30.327300   0.004974  -0.004885  20.198000   0.001062  -0.002429  28.251900  -1.506140  -2.799970  34.137100  -0.000989  -0.005799  22.735300  -0.005455  -0.003686  33.459500  -1.754050  -2.651850  50.250300  -0.008775  -0.002707  33.466800  -0.001583  -0.001311   4.529730   5.085380  -0.415928   0.563088   1.052870  10.559700  -4.365170  -2.188180  -0.586926  -0.000000   0.000000   0.000000  -0.070695   5.966800  -2.590170   0.771051   1.803730 -14.680600   0.036793  -3.388100   0.318847   0.000000   0.000000   0.000000
 -1.104450  89.474000  -1.218460  -0.989129  -4.106720   2.774040   1.251430   4.301360  -0.852797   2.578020   8.582500  -1.807540  -1.117400   0.208369   0.005642  -1.835910   0.421703   7.431790  -8.084280   1.867900  10.888100 -76.306700   8.850960  -7.964870   0.071204   5.747510 -14.874700   8.244460   1.257160  -1.579920  40.126600  34.506700 -51.071500 -33.282600   0.011033   0.007309 -11.641300   0.005976  -0.002603 -33.659900  -1.190590   1.787140 -27.555300   0.003394   0.006070 -19.288700   0.000781   0.004659 -30.165600  -3.742680   6.393240 -45.562300  -0.010818   0.006318 -30.344500  -0.011790   0.002424 -28.161800  -4.221800   7.828270 -35.676400  -0.005763   0.012804 -23.760500  -0.005936   0.007084 -28.940900  -4.855020   8.701840 -43.966100   0.000272   0.004490 -29.281400  -0.007234   0.000272   8.335680   3.865660   9.989200  66.799600  -0.675725   1.891260   2.153590   0.307106  19.222200 -14.129400   0.465011   1.441410 -54.922200  49.636400  98.652800  24.350900  -0.007204  -0.000215   7.175450   0.005327   0.000638  29.332700   1.391460   2.474560  24.024200   0.006798  -0.009344  16.812400   0.009789  -0.001961  27.675400  -1.457660  -2.776730  30.288000   0.004968  -0.004884  20.171800   0.001050  -0.002409  28.250900  -1.485490  -2.761940  34.102400  -0.000996  -0.005789  22.712100  -0.005451  -0.003682  33.426700  -1.728680  -2.616730  50.199500  -0.008777  -0.002681  33.432900  -0.001546  -0.001295   4.524320   5.100880  -0.406660   0.553361   1.047180  10.536200  -4.360690  -2.160870  -0.639143  -0.000000   0.000000   0.000000  -0.049303   5.989460  -2.575360   0.727440   1.827690 -14.697600   0.059963  -3.409180   0.265269  -0.000000   0.000000  -0.000000
 -1.102740  89.473900  -1.234640  -0.984209  -4.135720   2.823590   1.246460   4.316110  -0.855599   2.568520   8.612020  -1.813140  -1.124540   0.229117   0.005642  -1.844840   0.463635   7.458820  -8.102920   1.866000  10.881800 -76.244400   8.872010  -7.939560   0.119808   6.007760 -15.017900   8.255780   1.211930  -1.562180  40.210200  34.617600 -51.216500 -33.271200   0.011036   0.007304 -11.635600   0.005969  -0.002610 -33.669900  -1.165180   1.748430 -27.562800   0.003384   0.006070 -19.294000   0.000774   0.004659 -30.171400  -3.742670   6.393020 -45.571000  -0.010799   0.006289 -30.350300  -0.011769   0.002393 -28.170300  -4.191240   7.770560 -35.691500  -0.005774   0.012802 -23.770600  -0.005959   0.007084 -28.955900  -4.822740   8.640010 -43.979700   0.000282   0.004484 -29.290500  -0.007248   0.000280   8.342300   3.868170  10.000400  66.717200  -0.640339   1.926910   2.184210   0.369754  19.198100 -14.171100   0.544067   1.461910 -54.840700  49.645200  98.641500  24.298700  -0.007243  -0.000210   7.149360   0.005326   0.000645  29.326300   1.429330   2.543800  24.019600   0.006787  -0.009332  16.812400   0.009783  -0.001949  27.672200  -1.417650  -2.701090  30.261100   0.004956  -0.004878  20.154000   0.001031  -0.002382  28.248500  -1.444770  -2.686680  34.066400  -0.001015  -0.005775  22.688200  -0.005444  -0.003673  33.388200  -1.679790  -2.546450  50.139000  -0.008780  -0.002645  33.392600  -0.001485  -0.001272   4.516560   5.115530  -0.409896   0.549979   1.034230  10.528100  -4.355030  -2.138330  -0.677019   0.000000   0.000000   0.000000  -0.047223   6.015390  -2.588950   0.712175   1.823400 -14.703200   0.070712  -3.415060   0.241649   0.000000   0.000000  -0.000000
 -1.098100  89.473800  -1.250030  -0.979901  -4.161360   2.866570   1.241330   4.328810  -0.856806   2.558630   8.637480  -1.815540  -1.129640   0.255968   0.005642  -1.852770   0.517962   7.484910  -8.120400   1.863990  10.877700 -76.172300   8.903450  -7.894890   0.185788   6.354450 -15.205900   8.266390   1.145160  -1.536540  40.268200  34.728700 -51.405900 -33.265100   0.011040   0.007299 -11.632600   0.005958  -0.002619 -33.687300  -1.121130   1.681340 -27.575900   0.003371   0.006070 -19.303200   0.000766   0.004658 -30.179500  -3.742660   6.392890 -45.583300  -0.010773   0.006251 -30.358400  -0.011741   0.002351 -28.179800  -4.155400   7.702770 -35.715300  -0.005788   0.012800 -23.786400  -0.005989   0.007084 -28.977100  -4.785110   8.566210 -44.003800   0.000295   0.004476 -29.306600  -0.007267   0.000290   8.349620   3.871680  10.013100  66.636700  -0.603333   1.961350   2.233130   0.419947  19.161500 -14.269800   0.572137   1.537610 -54.698200  49.652100  98.617200  24.236400  -0.007298  -0.000206   7.118190   0.005325   0.000654  29.320800   1.485090   2.642420  24.017800   0.006772  -0.009316  16.812500   0.009771  -0.001932  27.672100  -1.375510  -2.620830  30.247500   0.004941  -0.004868  20.144900   0.001005  -0.002348  28.248100  -1.401780  -2.606870  34.044500  -0.001041  -0.005755  22.673700  -0.005434  -0.003661  33.365300  -1.628870  -2.471440  50.100700  -0.008785  -0.002598  33.367100  -0.001408  -0.001241   4.508550   5.128670  -0.416732   0.548015   1.020970  10.525700  -4.349060  -2.117810  -0.708335  -0.000000   0.000000  -0.000000  -0.048282   6.038760  -2.602520   0.707124   1.819100 -14.708900   0.081093  -3.416410   0.227179   0.000000   0.000000   0.000000
